<svg width="18" height="21" viewBox="0 0 18 21" fill="none" xmlns="http://www.w3.org/2000/svg">
<path d="M15 20.5C14.1667 20.5 13.4583 20.2083 12.875 19.625C12.2917 19.0417 12 18.3333 12 17.5C12 17.3833 12.0083 17.2625 12.025 17.1375C12.0417 17.0125 12.0667 16.9 12.1 16.8L5.05 12.7C4.76667 12.95 4.45 13.1458 4.1 13.2875C3.75 13.4292 3.38333 13.5 3 13.5C2.16667 13.5 1.45833 13.2083 0.875 12.625C0.291667 12.0417 0 11.3333 0 10.5C0 9.66667 0.291667 8.95833 0.875 8.375C1.45833 7.79167 2.16667 7.5 3 7.5C3.38333 7.5 3.75 7.57083 4.1 7.7125C4.45 7.85417 4.76667 8.05 5.05 8.3L12.1 4.2C12.0667 4.1 12.0417 3.9875 12.025 3.8625C12.0083 3.7375 12 3.61667 12 3.5C12 2.66667 12.2917 1.95833 12.875 1.375C13.4583 0.791667 14.1667 0.5 15 0.5C15.8333 0.5 16.5417 0.791667 17.125 1.375C17.7083 1.95833 18 2.66667 18 3.5C18 4.33333 17.7083 5.04167 17.125 5.625C16.5417 6.20833 15.8333 6.5 15 6.5C14.6167 6.5 14.25 6.42917 13.9 6.2875C13.55 6.14583 13.2333 5.95 12.95 5.7L5.9 9.8C5.93333 9.9 5.95833 10.0125 5.975 10.1375C5.99167 10.2625 6 10.3833 6 10.5C6 10.6167 5.99167 10.7375 5.975 10.8625C5.95833 10.9875 5.93333 11.1 5.9 11.2L12.95 15.3C13.2333 15.05 13.55 14.8542 13.9 14.7125C14.25 14.5708 14.6167 14.5 15 14.5C15.8333 14.5 16.5417 14.7917 17.125 15.375C17.7083 15.9583 18 16.6667 18 17.5C18 18.3333 17.7083 19.0417 17.125 19.625C16.5417 20.2083 15.8333 20.5 15 20.5ZM15 4.5C15.2833 4.5 15.5208 4.40417 15.7125 4.2125C15.9042 4.02083 16 3.78333 16 3.5C16 3.21667 15.9042 2.97917 15.7125 2.7875C15.5208 2.59583 15.2833 2.5 15 2.5C14.7167 2.5 14.4792 2.59583 14.2875 2.7875C14.0958 2.97917 14 3.21667 14 3.5C14 3.78333 14.0958 4.02083 14.2875 4.2125C14.4792 4.40417 14.7167 4.5 15 4.5ZM3 11.5C3.28333 11.5 3.52083 11.4042 3.7125 11.2125C3.90417 11.0208 4 10.7833 4 10.5C4 10.2167 3.90417 9.97917 3.7125 9.7875C3.52083 9.59583 3.28333 9.5 3 9.5C2.71667 9.5 2.47917 9.59583 2.2875 9.7875C2.09583 9.97917 2 10.2167 2 10.5C2 10.7833 2.09583 11.0208 2.2875 11.2125C2.47917 11.4042 2.71667 11.5 3 11.5ZM15 18.5C15.2833 18.5 15.5208 18.4042 15.7125 18.2125C15.9042 18.0208 16 17.7833 16 17.5C16 17.2167 15.9042 16.9792 15.7125 16.7875C15.5208 16.5958 15.2833 16.5 15 16.5C14.7167 16.5 14.4792 16.5958 14.2875 16.7875C14.0958 16.9792 14 17.2167 14 17.5C14 17.7833 14.0958 18.0208 14.2875 18.2125C14.4792 18.4042 14.7167 18.5 15 18.5Z" fill="#F6F6F6"/>
</svg>
